HIERARCHY
ROOT root
{
	OFFSET 0.000000 0.000000 0.000000
	CHANNELS 6 Xposition Yposition Zposition Zrotation Yrotation Xrotation
	JOINT lhip
	{
		OFFSET 0.058581 -0.082280 -0.017664
		CHANNELS 3 Zrotation Yrotation Xrotation
		JOINT lknee
		{
			OFFSET 0.043451 -0.386469 0.008037
			CHANNELS 3 Zrotation Yrotation Xrotation
			JOINT lankle
			{
				OFFSET -0.014790 -0.426874 -0.037428
				CHANNELS 3 Zrotation Yrotation Xrotation
				JOINT ltoe
				{
					OFFSET 0.041054 -0.060286 0.122042
					CHANNELS 3 Zrotation Yrotation Xrotation
					End Site
					{
						OFFSET 0.000000 0.000000 0.000000
					}
				}
			}
		}
	}
	JOINT rhip
	{
		OFFSET -0.060310 -0.090513 -0.013543
		CHANNELS 3 Zrotation Yrotation Xrotation
		JOINT rknee
		{
			OFFSET -0.043257 -0.383688 -0.004843
			CHANNELS 3 Zrotation Yrotation Xrotation
			JOINT rankle
			{
				OFFSET 0.019056 -0.420046 -0.034562
				CHANNELS 3 Zrotation Yrotation Xrotation
				JOINT rtoe
				{
					OFFSET -0.034840 -0.062106 0.130323
					CHANNELS 3 Zrotation Yrotation Xrotation
					End Site
					{
						OFFSET 0.000000 0.000000 0.000000
					}
				}
			}
		}
	}
	JOINT lowerback
	{
		OFFSET 0.004439 0.124404 -0.038385
		CHANNELS 3 Zrotation Yrotation Xrotation
		JOINT upperback
		{
			OFFSET 0.004488 0.137956 0.026820
			CHANNELS 3 Zrotation Yrotation Xrotation
			JOINT chest
			{
				OFFSET -0.002265 0.056032 0.002855
				CHANNELS 3 Zrotation Yrotation Xrotation
				JOINT lowerneck
				{
					OFFSET -0.013390 0.211636 -0.033468
					CHANNELS 3 Zrotation Yrotation Xrotation
					JOINT upperneck
					{
						OFFSET 0.010113 0.088937 0.050410
						CHANNELS 3 Zrotation Yrotation Xrotation
						End Site
						{
							OFFSET 0.000000 0.000000 0.000000
						}
					}
				}
				JOINT lclavicle
				{
					OFFSET 0.071702 0.114000 -0.018898
					CHANNELS 3 Zrotation Yrotation Xrotation
					JOINT lshoulder
					{
						OFFSET 0.122921 0.045205 -0.019046
						CHANNELS 3 Zrotation Yrotation Xrotation
						JOINT lelbow
						{
							OFFSET 0.255332 -0.015649 -0.022946
							CHANNELS 3 Zrotation Yrotation Xrotation
							JOINT lwrist
							{
								OFFSET 0.265709 0.012698 -0.007375
								CHANNELS 3 Zrotation Yrotation Xrotation
								End Site
								{
									OFFSET 0.000000 0.000000 0.000000
								}
							}
						}
					}
				}
				JOINT rclavicle
				{
					OFFSET -0.082954 0.112472 -0.023707
					CHANNELS 3 Zrotation Yrotation Xrotation
					JOINT rshoulder
					{
						OFFSET -0.113228 0.046853 -0.008472
						CHANNELS 3 Zrotation Yrotation Xrotation
						JOINT relbow
						{
							OFFSET -0.260127 -0.014369 -0.031269
							CHANNELS 3 Zrotation Yrotation Xrotation
							JOINT rwrist
							{
								OFFSET -0.269108 0.006794 -0.006027
								CHANNELS 3 Zrotation Yrotation Xrotation
								End Site
								{
									OFFSET 0.000000 0.000000 0.000000
								}
							}
						}
					}
				}
			}
		}
	}
}
MOTION
Frames: 5
Frame Time: 0.033333
0.034294 0.586618 0.913601 -10.065794 0.860275 95.165232 13.550538 8.371656 -29.928815 -6.387620 7.545384 40.757527 2.240576 9.212371 -24.134745 0.000000 -0.000000 0.000000 -17.037945 -12.007182 -35.155503 0.331265 -5.755872 35.415700 11.097501 -3.365439 -3.411341 0.000000 -0.000000 0.000000 -0.333007 1.352687 36.707736 0.281962 -0.262487 -4.153511 0.554200 -0.863205 -0.632590 -7.468513 5.093472 -21.814650 -0.770421 -3.408332 14.983224 -26.529526 -8.865850 -2.095409 -37.584968 -19.510258 8.424139 28.316366 -78.593177 -0.317479 6.401307 -12.334062 -10.973444 33.642424 11.803821 4.388672 44.156781 15.713229 8.225547 -37.228737 49.141846 -38.714759 2.258213 12.445254 -24.439842 
0.031461 0.585217 0.912669 -8.969109 0.653237 95.212147 13.582877 8.282741 -30.121691 -6.020746 8.071824 40.893501 2.112867 7.625061 -24.246127 0.000000 -0.000000 0.000000 -17.508083 -12.046748 -34.991177 -0.650416 -7.230889 36.483997 10.990720 -2.311568 -4.061574 0.000000 -0.000000 0.000000 0.017097 1.419440 36.415574 -0.112317 -0.360869 -3.296455 0.527749 -0.491156 -2.148259 -7.166635 4.455938 -19.240595 -0.225690 -3.437161 14.256606 -27.400288 -10.590424 -0.711570 -40.188895 -19.132350 8.728478 43.836266 -77.103847 -19.102631 6.083895 -11.991736 -9.287695 33.811650 12.587005 5.885865 43.759926 13.996659 6.717253 -38.255340 48.671085 -41.098447 2.368942 11.268596 -23.183591 
0.029171 0.583528 0.911598 -7.831576 0.293439 95.230978 13.317674 7.953093 -30.359253 -5.941299 8.029703 41.048941 1.898684 6.985328 -24.402571 0.000000 -0.000000 0.000000 -17.869166 -12.256492 -35.221083 -1.627537 -7.607367 38.401327 11.680922 -1.892452 -5.021286 0.000000 -0.000000 0.000000 0.190605 1.277340 36.699890 -0.437759 -0.172941 -3.250748 0.426280 -0.269269 -1.711576 -7.207271 4.014051 -19.997991 -0.250615 -3.786504 13.551827 -28.525957 -10.357594 -1.181327 -42.356298 -20.617384 9.277854 48.808609 -76.608457 -25.814267 4.932733 -12.479118 -8.349949 33.810512 12.108268 5.208602 43.401752 13.470431 6.724500 -38.544741 49.042484 -41.471710 3.369350 10.766919 -21.222755 
0.026152 0.581688 0.909373 -6.219513 -0.108193 95.076760 13.042017 7.397978 -30.713649 -6.153819 7.550478 41.444386 2.038327 6.656801 -24.461041 0.000000 -0.000000 0.000000 -18.344749 -12.817457 -35.070429 -2.115568 -7.575960 40.551860 11.043235 -2.214831 -6.785313 0.000000 -0.000000 0.000000 0.486919 1.301518 37.446434 -0.647196 -0.131912 -3.697449 0.330345 -0.187151 -1.659377 -7.374165 3.576719 -20.240078 -0.212770 -3.328492 14.109773 -29.270060 -10.388255 -1.320684 -45.242835 -21.111633 10.727654 52.679379 -76.364910 -29.075485 6.829315 -12.131004 -10.062045 33.730097 12.126359 4.938547 42.791577 12.686730 6.400082 -38.440086 48.353734 -40.877213 3.924079 11.167831 -20.363484 
0.025186 0.581513 0.908320 -5.815804 -0.173606 94.835391 13.093335 7.283605 -30.682462 -6.299704 7.439549 41.681108 2.105928 6.609549 -24.510695 0.000000 -0.000000 0.000000 -18.523164 -12.887648 -34.885644 -2.146290 -7.644240 41.140707 10.854054 -2.302712 -7.153295 0.000000 -0.000000 0.000000 0.723609 1.425556 37.080924 -0.723654 -0.099954 -3.259043 0.267547 -0.144789 -1.078747 -7.578057 2.975684 -19.966925 0.197090 -3.021460 13.526317 -29.554160 -11.227786 -0.971596 -45.328601 -21.278279 10.993017 53.819419 -75.961298 -30.356842 7.562576 -11.863666 -10.297481 33.677901 12.774528 5.157850 42.311567 12.602869 5.752792 -38.665605 48.063192 -41.197619 4.297941 11.139770 -20.278229 
